<?xml version="1.0" encoding="iso-8859-1"?>
<!-- Generator: Adobe Illustrator 16.0.0, SVG Export Plug-In . SVG Version: 6.00 Build 0)  -->
<!DOCTYPE svg PUBLIC "-//W3C//DTD SVG 1.1//EN" "http://www.w3.org/Graphics/SVG/1.1/DTD/svg11.dtd">
<svg version="1.1" id="Layer_1" opacity="0.2" xmlns="http://www.w3.org/2000/svg" xmlns:xlink="http://www.w3.org/1999/xlink"
	 x="0px" y="0px" width="246.525px" height="172.582px" viewBox="0 0 246.525 172.582"
	 style="enable-background:new 0 0 246.525 172.582;" xml:space="preserve">
<polygon style="fill:#FFFFFF;" points="0.516,0 122.969,172.582 247.041,0 "/>
<g>
	<path d="M206.121,20l-57.449,79.272l-25.66,35.583L97.52,99.151L40.838,20H206.121 M212,17h0.005H212z M212,17H35l60.081,83.898
		L123,140l28.105-38.973L212,17L212,17z"/>
</g>
<g>
	<path d="M202.604,20l-37.343,26.555l-0.031,0.022L165.2,46.6l-42.22,31.665L79.791,46.593L44.056,20H202.604 M212,17H35l43,32
		l45,33l44-33L212,17L212,17z"/>
</g>
<g id="star">
	<path d="M123,27.058l7.137,22.837L130.794,52H133h24.91l-19.696,14.589l-1.771,1.312l0.723,2.082l8.148,23.501l-20.633-13.968
		L123,78.377l-1.682,1.139l-20.97,14.196l7.512-23.809l0.644-2.04l-1.719-1.273L87.09,52H113h2.206l0.658-2.105L123,27.058 M123,17
		l-10,32H78l27,20l-10.105,32.027L123,82l28.105,19.027L140,69l27-20h-34L123,17L123,17z"/>
</g>
</svg>
