<?xml version="1.0" encoding="iso-8859-1"?>
<!-- Generator: Adobe Illustrator 16.0.0, SVG Export Plug-In . SVG Version: 6.00 Build 0)  -->
<!DOCTYPE svg PUBLIC "-//W3C//DTD SVG 1.1//EN" "http://www.w3.org/Graphics/SVG/1.1/DTD/svg11.dtd">
<svg version="1.1" id="Layer_1" xmlns="http://www.w3.org/2000/svg" xmlns:xlink="http://www.w3.org/1999/xlink" x="0px" y="0px"
	 width="246.525px" height="172.582px" viewBox="0 0 246.525 172.582" style="enable-background:new 0 0 246.525 172.582;"
	 xml:space="preserve">
<polygon style="fill:#F51B47;" points="0,0 122.453,172.582 246.525,0 "/>
<polygon style="fill:#1768F5;" points="33,17 122.674,143.101 213,17 "/>
<polygon style="fill:#178FF5;" points="123,84 77.721,50.325 33,17 213,17 167.793,50.325 "/>
<polygon id="shadow" style="opacity:0.05;" points="123,0 123,172.582 246.525,0 "/>
<polygon id="star" style="fill:#FFFFFF;" points="123,17 112,50 77,50 105,71 95,104 123,84 151,104 140,71 168,50 133,50 "/>
<g id="shade2">
	<polygon style="opacity:0.15;" points="123,17 123,65 133.804,50.264 	"/>
	<polygon style="opacity:0.15;" points="140.326,70.939 151,104 123,65 	"/>
	<polygon style="opacity:0.15;" points="95,104 123,65 123,84 	"/>
	<polygon style="opacity:0.15;" points="77,50 123,65 105,71 	"/>
</g>
<g id="shade1">
	<polygon style="opacity:0.1;" points="167.793,50.325 123,65 140,71 	"/>
	<polygon style="opacity:0.1;" points="123,84 151,104 123,65 	"/>
	<polygon style="opacity:0.1;" points="112,50 123,65 77,50 	"/>
</g>
</svg>
