<?xml version="1.0" encoding="iso-8859-1"?>
<!-- Generator: Adobe Illustrator 16.0.0, SVG Export Plug-In . SVG Version: 6.00 Build 0)  -->
<!DOCTYPE svg PUBLIC "-//W3C//DTD SVG 1.1//EN" "http://www.w3.org/Graphics/SVG/1.1/DTD/svg11.dtd">
<svg version="1.1" id="Layer_1" opacity="0.2" xmlns="http://www.w3.org/2000/svg" xmlns:xlink="http://www.w3.org/1999/xlink"
	 x="0px" y="0px" width="246.525px" height="172.582px" viewBox="0 0 246.525 172.582"
	 style="enable-background:new 0 0 246.525 172.582;" xml:space="preserve">
<polygon style="fill:#FFFFFF;" points="0,0 122.453,172.582 246.525,0 "/>
<g>
	<polygon style="fill:#FFFFFF;" points="96.307,100.033 36.927,17.5 209.067,17.5 149.509,100.02 122.674,137.413 	"/>
	<path d="M206.135,19l-57.848,80.149l-25.603,35.676L97.516,99.146L39.854,19H206.135 M212,16H34l61.081,84.898L122.664,140
		l28.061-39.102L212,16L212,16z"/>
</g>
<g>
	<polygon style="fill:#FFFFFF;" points="78.887,47.791 38.5,17.5 207.418,17.5 166.113,47.791 122.99,80.132 	"/>
	<path d="M202.836,19L165.2,46.6l-42.22,31.665L79.8,46.6L43,19H202.836 M212,16H34l44,33l45,33l44-33L212,16L212,16z"/>
</g>
<g id="star">
	<polygon style="fill:#FFFFFF;" points="106.752,68.431 82.545,50.5 114.113,50.5 123,21.172 131.887,50.5 162.455,50.5 
		138.222,68.451 148.21,97.255 123,80.188 97.622,97.369 	"/>
	<path d="M123,26.345l7.129,23.525l0.646,2.13H133h24.91l-19.696,14.589l-1.771,1.312l0.723,2.082l8.148,23.501l-20.633-13.968
		L123,78.377l-1.682,1.139l-20.97,14.196l7.512-23.809l0.644-2.04l-1.719-1.273L87.09,52H113h2.226l0.646-2.13L123,26.345 M123,16
		l-10,33H78l27,20l-10.105,32.027L123,82l28.105,19.027L140,69l27-20h-34L123,16L123,16z"/>
</g>
</svg>
