<?xml version="1.0" encoding="iso-8859-1"?>
<!-- Generator: Adobe Illustrator 16.0.0, SVG Export Plug-In . SVG Version: 6.00 Build 0)  -->
<!DOCTYPE svg PUBLIC "-//W3C//DTD SVG 1.1//EN" "http://www.w3.org/Graphics/SVG/1.1/DTD/svg11.dtd">
<svg version="1.1" id="Layer_1" opacity="0.2" xmlns="http://www.w3.org/2000/svg" xmlns:xlink="http://www.w3.org/1999/xlink"
	 x="0px" y="0px" width="246.525px" height="172.582px" viewBox="0 0 246.525 172.582"
	 style="enable-background:new 0 0 246.525 172.582;" xml:space="preserve">
<polygon style="fill:#FFFFFF;" points="-1,0 121.453,172.582 245.525,0 "/>
<g>
	<path d="M214.096,16l-63.127,87.696l-28.313,39.454l-27.832-39.454L31.896,16H214.096 M218,14h0.005H218z M218,14H28l65.199,90.862
		l29.442,41.738l29.953-41.738L218,14L218,14z"/>
</g>
<g>
	<path d="M211.862,16l-43.078,31.412L122.987,82.49L76.194,47.396L34.034,16H211.862 M218,14H28l47,35l48,36l47-36L218,14L218,14z"
		/>
</g>
<g id="star">
	<path d="M123,20.67l9.092,28.929l0.44,1.4H134h30.055l-24.264,18.407l-1.163,0.882l0.486,1.376l10.003,28.342l-25.008-16.672
		L123,82.596l-1.109,0.74l-25.219,16.813l9.231-28.533l0.437-1.351l-1.131-0.858L80.945,51H112h1.468l0.44-1.4L123,20.67 M123,14
		l-11,35H75l29,22l-11,34l30-20l30,20l-12-34l29-22h-36L123,14L123,14z"/>
</g>
</svg>
