<?xml version="1.0" encoding="iso-8859-1"?>
<!-- Generator: Adobe Illustrator 16.0.0, SVG Export Plug-In . SVG Version: 6.00 Build 0)  -->
<!DOCTYPE svg PUBLIC "-//W3C//DTD SVG 1.1//EN" "http://www.w3.org/Graphics/SVG/1.1/DTD/svg11.dtd">
<svg version="1.1" id="Layer_1" xmlns="http://www.w3.org/2000/svg" xmlns:xlink="http://www.w3.org/1999/xlink" x="0px" y="0px"
	 width="246.525px" height="172.582px" viewBox="0 0 246.525 172.582" style="enable-background:new 0 0 246.525 172.582;"
	 xml:space="preserve">
<polygon style="fill:#F51B47;" points="0,0 122.453,172.582 246.525,0 "/>
<polygon style="fill:#1768F5;" points="28,14 93.199,104.862 122.641,146.601 152.594,104.862 218,14 "/>
<polygon style="fill:#178FF5;" points="123,85 75,49 28,14 218,14 170,49 "/>
<polygon id="star" style="fill:#FFFFFF;" points="123,14 112,49 75,49 104,71 93,105 123,85 153,105 141,71 170,49 134,49 "/>
<g id="shade2">
	<polygon style="opacity:0.15;" points="123,14 123,64 134,49 	"/>
	<polygon style="opacity:0.15;" points="141,71 153,105 123,64 	"/>
	<polygon style="opacity:0.15;" points="93,105 123,64 123,85 	"/>
	<polygon style="opacity:0.15;" points="75,49 123,64 104,71 	"/>
</g>
<g id="shade1">
	<polygon style="opacity:0.1;" points="170,49 123,64 141,71 	"/>
	<polygon style="opacity:0.1;" points="123,85 153,105 123,64 	"/>
	<polygon style="opacity:0.1;" points="111.68,48.661 123,64 75,49 	"/>
</g>
</svg>
